<svg viewBox="1157 474 766 444.124" fill="none" xmlns="http://www.w3.org/2000/svg">
<path d="M1187 876.334H1191.71L1197.38 844.116H1214.16L1208.49 876.334H1213.19L1219.57 840.209H1193.35L1187 876.334ZM1236.8 849.881C1235.93 849.881 1235.06 849.952 1234.23 850.117C1228.14 851.176 1222.87 856.024 1221.52 863.602C1220.09 871.792 1224.63 876.946 1231.6 876.946C1232.47 876.946 1233.34 876.875 1234.23 876.71C1239.76 875.698 1245.51 871.462 1246.96 863.178C1248.33 855.294 1244.23 849.881 1236.8 849.881ZM1242.09 863.32C1241.2 868.379 1238 872.215 1234.23 873.18C1233.64 873.322 1233.06 873.416 1232.44 873.416C1227.83 873.416 1225.38 869.132 1226.37 863.437C1227.13 859.13 1229.81 854.612 1234.23 853.623C1234.82 853.482 1235.43 853.412 1236.07 853.412C1241.62 853.412 1242.87 858.919 1242.09 863.32ZM1272.22 850.399H1251.32L1250.66 854.094H1258.76L1254.83 876.334H1259.53L1263.46 854.094H1271.56L1272.22 850.399ZM1286.74 849.881C1285.87 849.881 1285 849.952 1284.15 850.117C1278.05 851.176 1272.78 856.024 1271.44 863.602C1269.98 871.792 1274.55 876.946 1281.51 876.946C1282.36 876.946 1283.25 876.875 1284.13 876.71C1289.66 875.698 1295.4 871.462 1296.86 863.178C1298.27 855.294 1294.17 849.881 1286.74 849.881ZM1292.03 863.32C1291.14 868.379 1287.94 872.215 1284.17 873.18C1283.58 873.322 1283 873.416 1282.38 873.416C1277.77 873.416 1275.32 869.132 1276.31 863.437C1277.07 859.13 1279.75 854.612 1284.17 853.623C1284.76 853.482 1285.37 853.412 1286.01 853.412C1291.59 853.412 1292.79 858.919 1292.03 863.32ZM1325.55 850.399L1319.43 861.696C1317.85 864.543 1315.68 868.615 1314.74 870.592H1314.63C1314.39 868.544 1313.87 865.391 1313.52 863.461L1311.17 850.399H1305.38L1298.81 876.334H1303.16L1306.04 864.073C1306.69 861.225 1307.4 857.812 1308.06 854.753H1308.27C1308.48 857.177 1308.95 860.919 1309.38 863.343L1311.71 876.193H1315.1L1322.39 863.108C1324.56 859.083 1325.66 857.059 1326.77 854.682H1326.93C1326.49 857.86 1326.11 861.107 1325.73 863.955L1324.13 876.334H1328.63L1331.38 850.399H1325.55ZM1347.17 865.626C1346.21 867.509 1345.31 869.485 1344.56 871.039H1344.44C1344.28 869.485 1344 867.462 1343.67 865.744L1340.75 850.423H1335.59L1340.91 874.31C1341.08 874.898 1341.12 875.275 1341.08 875.534C1341.03 875.816 1340.8 876.193 1340.51 876.663C1338.96 879.064 1337.08 880.899 1335.62 881.911C1334.02 883.088 1332.32 883.841 1331.08 884.218L1331.57 888.124C1332.79 887.913 1335.17 887.089 1337.88 885.112C1341.6 882.264 1344.7 877.769 1349.64 868.874L1359.98 850.376H1354.99L1347.17 865.626ZM1400.01 862.896C1398.43 863.908 1396.15 864.661 1394.12 864.661C1390.01 864.661 1389.16 862.472 1389.75 859.13L1391.28 850.399H1386.55L1384.9 859.719C1383.86 865.602 1387.06 868.12 1391.94 868.12C1394.41 868.12 1397.4 867.32 1399.35 866.191H1399.4L1397.56 876.64H1402.22L1406.86 850.376H1402.2L1400.01 862.896ZM1431.97 850.399H1411.07L1410.41 854.094H1418.51L1414.57 876.334H1419.31L1423.24 854.094H1431.33L1431.97 850.399ZM1446.46 849.881C1445.59 849.881 1444.72 849.952 1443.9 850.117C1437.8 851.176 1432.53 856.024 1431.19 863.602C1429.75 871.792 1434.3 876.946 1441.26 876.946C1442.11 876.946 1443 876.875 1443.9 876.71C1449.43 875.698 1455.17 871.462 1456.63 863.178C1458 855.294 1453.92 849.881 1446.46 849.881ZM1451.76 863.32C1450.86 868.379 1447.66 872.215 1443.9 873.18C1443.31 873.322 1442.72 873.416 1442.11 873.416C1437.5 873.416 1435.05 869.132 1436.04 863.437C1436.79 859.13 1439.47 854.612 1443.9 853.623C1444.49 853.482 1445.1 853.412 1445.73 853.412C1451.31 853.412 1452.54 858.919 1451.76 863.32ZM1496.97 858.824C1493.58 863.108 1490.64 867.038 1488.21 870.78L1488.07 870.733C1489.25 865.908 1490.19 861.131 1491.2 855.459L1493.88 840.233H1489.48L1483.11 876.357H1488.1L1502.57 858.354C1505.72 854.4 1508.95 850.211 1511.39 846.234L1511.54 846.281C1510.36 850.823 1509.56 855.13 1508.52 860.966L1505.82 876.334H1510.22L1516.6 840.209H1511.94L1496.97 858.824ZM1537.78 860.848H1525.51L1527.35 850.399H1522.64L1518.08 876.334H1522.78L1524.86 864.614H1537.12L1535.05 876.334H1539.75L1544.32 850.399H1539.61L1537.78 860.848ZM1569.41 850.399H1548.48L1547.83 854.094H1555.92L1551.99 876.334H1556.72L1560.63 854.094H1568.72L1569.41 850.399ZM1583.2 849.881C1582.33 849.881 1581.46 849.976 1580.63 850.117C1574.37 851.317 1569.78 856.895 1568.56 863.814C1567.17 871.627 1571.03 876.946 1579.01 876.946C1579.57 876.946 1580.11 876.922 1580.63 876.899C1583.95 876.71 1586.44 875.934 1588 875.275L1587.74 871.909C1585.95 872.639 1583.83 873.204 1580.63 873.251H1580.3C1575.52 873.251 1571.97 870.639 1572.98 864.237H1591.2C1591.41 863.696 1591.58 863.014 1591.76 862.049C1592.63 857.271 1591.74 849.881 1583.2 849.881ZM1587.43 860.848H1573.67C1574.51 857.954 1576.8 854.235 1580.66 853.412C1581.15 853.294 1581.69 853.247 1582.26 853.247C1587.55 853.247 1588.02 857.907 1587.43 860.848ZM1613.34 849.881C1611.96 849.881 1610.68 850.07 1609.46 850.446C1606.97 851.199 1604.87 852.729 1603.22 854.871H1603.11L1603.62 850.423H1599.44C1599.11 852.87 1598.75 855.577 1598.16 858.895L1593.22 886.971H1597.88L1600.35 872.874H1600.47C1601.58 875.463 1604.31 876.946 1607.74 876.946C1608.31 876.946 1608.87 876.899 1609.46 876.828C1615.04 876.051 1620.57 871.462 1622.05 863.014C1623.44 855.177 1619.65 849.881 1613.34 849.881ZM1617.25 863.225C1616.33 868.403 1613.49 872.145 1609.46 873.039C1608.87 873.18 1608.24 873.251 1607.6 873.251C1604.24 873.251 1601.79 870.992 1601.51 867.744C1601.44 867.156 1601.51 866.52 1601.62 865.814L1602.42 861.319C1602.52 860.731 1602.8 860.025 1603.08 859.436C1604.28 856.542 1606.83 854.518 1609.46 853.859C1610.05 853.718 1610.64 853.647 1611.23 853.647C1616.19 853.623 1618.15 858.071 1617.25 863.225ZM1645.14 860.848H1632.88L1634.71 850.399H1630.01L1625.44 876.334H1630.15L1632.22 864.614H1644.48L1642.41 876.334H1647.12L1651.68 850.399H1646.97L1645.14 860.848ZM1669.8 849.881C1668.91 849.881 1668.06 849.976 1667.21 850.117C1660.95 851.317 1656.39 856.895 1655.16 863.814C1653.78 871.627 1657.64 876.946 1665.61 876.946C1666.18 876.946 1666.7 876.922 1667.21 876.899C1670.53 876.71 1673.03 875.934 1674.58 875.275L1674.32 871.909C1672.53 872.639 1670.41 873.204 1667.21 873.251H1666.88C1662.11 873.251 1658.55 870.639 1659.59 864.237H1677.8C1677.99 863.696 1678.18 863.014 1678.35 862.049C1679.22 857.271 1678.32 849.881 1669.8 849.881ZM1674.02 860.848H1660.25C1661.09 857.954 1663.38 854.235 1667.24 853.412C1667.73 853.294 1668.27 853.247 1668.84 853.247C1674.13 853.247 1674.6 857.907 1674.02 860.848ZM1682.02 854.094H1690.11L1686.21 876.334H1690.94L1694.84 854.094H1702.94L1703.6 850.399H1682.68L1682.02 854.094ZM1754.88 840.233L1752.22 855.341H1734.73L1737.39 840.233H1732.69L1726.31 876.357H1731.01L1734 859.413H1751.49L1748.5 876.357H1753.21L1759.59 840.233H1754.88ZM1781.54 850.399L1773.71 865.626C1772.74 867.509 1771.85 869.485 1771.09 871.039H1771C1770.83 869.485 1770.55 867.462 1770.22 865.744L1767.3 850.423H1762.15L1767.47 874.31C1767.63 874.898 1767.68 875.275 1767.63 875.534C1767.59 875.816 1767.35 876.193 1767.05 876.663C1765.49 879.064 1763.63 880.899 1762.15 881.911C1760.55 883.088 1758.86 883.841 1757.61 884.218L1758.1 888.124C1759.33 887.913 1761.73 887.089 1764.43 885.112C1768.13 882.264 1771.26 877.769 1776.18 868.874L1786.51 850.376H1781.54V850.399ZM1810.18 862.19L1822.49 850.399H1817.08L1806.51 861.696H1805.59L1807.59 850.399H1803.08L1801.08 861.696H1800.16L1793.52 850.399H1788.16L1796.32 862.19C1792.32 862.613 1789.69 864.92 1787.33 869.109C1785.99 871.509 1784.65 874.239 1783.17 876.334H1787.78C1788.91 874.734 1789.99 872.71 1791.24 870.45C1793.59 866.214 1796.02 864.873 1799.73 864.873H1800.53L1798.51 876.334H1803.01L1805.03 864.873H1805.83C1809.2 864.873 1811.38 866.167 1812.25 870.403C1812.61 872.663 1812.98 874.804 1813.57 876.357H1818.28C1817.55 874.333 1817.17 871.58 1816.73 869.062C1815.9 864.92 1814.02 862.637 1810.18 862.19ZM1837.15 849.881C1836.26 849.881 1835.41 849.976 1834.56 850.117C1828.3 851.317 1823.74 856.895 1822.52 863.814C1821.15 871.627 1824.99 876.946 1832.96 876.946C1833.53 876.946 1834.05 876.922 1834.56 876.899C1837.88 876.71 1840.38 875.934 1841.93 875.275L1841.67 871.909C1839.88 872.639 1837.77 873.204 1834.56 873.251H1834.26C1829.48 873.251 1825.93 870.639 1826.94 864.237H1845.18C1845.37 863.696 1845.53 863.014 1845.72 862.049C1846.57 857.271 1845.67 849.881 1837.15 849.881ZM1841.37 860.848H1827.6C1828.45 857.954 1830.73 854.235 1834.56 853.412C1835.06 853.294 1835.6 853.247 1836.17 853.247C1841.48 853.247 1841.95 857.907 1841.37 860.848ZM1870.43 850.399L1868.6 860.848H1856.31L1858.15 850.399H1853.44L1848.87 876.334H1853.58L1855.65 864.614H1867.94L1865.87 876.334H1870.6L1875.16 850.399H1870.43Z" fill="url(#paint0_linear_21_2)"/>
<path d="M1491.86 812.674L1523.42 633.697C1525.02 628.731 1528.17 624.754 1532.98 621.789C1538.72 618.47 1545.68 616.705 1553.9 616.446L1599.95 616.399L1597.79 628.378L1565.31 812.65H1491.86V812.674Z" fill="url(#paint1_linear_21_2)"/>
<path d="M1714.99 616.258L1680.35 812.674H1607.77L1642.39 616.258H1714.99Z" fill="url(#paint2_linear_21_2)"/>
<path d="M1239.22 574.038H1311.87V573.99C1311.87 573.99 1355.57 573.779 1372.31 573.779C1406.53 573.779 1426.72 596.842 1422.13 631.908C1418.03 663.35 1390.19 681.989 1360.33 682.224C1308.44 682.624 1301.38 752.073 1355.65 752.073C1381.7 752.073 1414.01 749.555 1445.26 725.032C1480.12 697.709 1488.68 669.139 1495.16 632.214C1499.16 609.362 1494.1 566.86 1472.61 541.772C1451.1 516.708 1422.04 504.188 1385.37 504.188C1348.7 504.188 1251.91 504 1251.91 504C1251.91 504 1245.62 538.901 1239.22 574.038Z" fill="url(#paint3_linear_21_2)"/>
<path d="M1198.27 812.391L1226.61 651.653C1226.61 651.653 1272.62 651.818 1278.41 651.7C1305.26 651.7 1316.48 616.164 1339.62 616.164C1343.05 616.164 1371.81 616.093 1371.81 616.093C1385.51 616.093 1390.88 628.637 1390.08 634.308C1388.59 644.734 1382.38 650.712 1369.01 650.712L1368.99 650.806C1368.99 650.806 1360.09 650.876 1355.1 650.806C1329.48 650.5 1298.55 661.726 1291.56 695.262C1283.21 742.565 1270.83 812.415 1270.83 812.415H1198.27V812.391Z" fill="url(#paint4_linear_21_2)"/>
<path d="M1248.99 588.629H1229.27C1227.71 588.629 1226.25 589.876 1226 591.406C1225.74 592.959 1226.75 594.206 1228.28 594.206H1248.02C1249.55 594.206 1251.04 592.959 1251.3 591.406C1251.58 589.899 1250.57 588.629 1248.99 588.629ZM1246.47 602.984H1226.73C1225.22 602.984 1223.74 604.232 1223.48 605.785C1223.2 607.315 1224.23 608.562 1225.76 608.562H1245.48C1247.04 608.562 1248.49 607.315 1248.75 605.785C1249.04 604.232 1248.02 602.984 1246.47 602.984ZM1241.46 631.484H1221.74C1220.18 631.484 1218.72 632.755 1218.47 634.285C1218.21 635.815 1219.22 637.085 1220.75 637.085H1240.49C1242.05 637.085 1243.51 635.815 1243.76 634.285C1244.02 632.755 1243.01 631.484 1241.46 631.484ZM1243.98 617.246H1224.25C1222.7 617.246 1221.24 618.47 1220.98 620.047C1220.72 621.576 1221.74 622.824 1223.29 622.824H1243.01C1244.54 622.824 1246.02 621.576 1246.28 620.047C1246.54 618.47 1245.51 617.246 1243.98 617.246ZM1844.43 534.594C1822.89 514.755 1795.73 504.847 1762.95 504.847H1662.01L1649.37 576.556H1722.12L1750.17 577.309C1763.49 577.756 1774.76 580.98 1784.04 587.005C1799.05 597.36 1804.46 614.399 1800.28 638.121L1778.98 759.063C1771.42 797.988 1820.37 813.356 1841.98 813.356C1844.26 800.977 1870.5 651.629 1870.5 651.629H1870.38L1872.76 638.144C1880.6 593.712 1871.14 559.164 1844.43 534.594ZM1543.78 521.462C1539.92 542.384 1532.1 585.922 1532.1 585.922C1536.13 581.474 1540.13 579.756 1543.45 578.674C1547.57 577.309 1552.81 576.909 1561.03 576.673L1607.11 576.626L1620.1 504.847H1577.64C1557.17 504.847 1546.53 512.166 1543.78 521.462Z" fill="url(#paint5_linear_21_2)"/>
<path d="M1878.9 504.847C1881.28 504.847 1883.59 505.459 1885.85 506.683C1888.1 507.907 1889.87 509.648 1891.12 511.907C1892.39 514.167 1893 516.544 1893 518.991C1893 521.415 1892.39 523.769 1891.14 526.004C1889.89 528.24 1888.15 530.005 1885.92 531.229C1883.68 532.476 1881.33 533.088 1878.88 533.088C1876.43 533.088 1874.08 532.476 1871.84 531.229C1869.61 529.982 1867.87 528.24 1866.62 526.004C1865.37 523.745 1864.74 521.415 1864.74 518.991C1864.74 516.52 1865.37 514.167 1866.64 511.907C1867.91 509.648 1869.68 507.907 1871.94 506.683C1874.22 505.459 1876.53 504.847 1878.9 504.847ZM1878.9 507.177C1876.93 507.177 1875 507.695 1873.11 508.707C1871.23 509.719 1869.77 511.178 1868.71 513.061C1867.65 514.943 1867.11 516.92 1867.11 518.968C1867.11 520.992 1867.63 522.945 1868.67 524.828C1869.7 526.687 1871.16 528.146 1873.04 529.181C1874.93 530.217 1876.88 530.735 1878.9 530.735C1880.93 530.735 1882.88 530.217 1884.76 529.181C1886.65 528.146 1888.08 526.687 1889.12 524.828C1890.15 522.968 1890.67 521.015 1890.67 518.968C1890.67 516.92 1890.15 514.943 1889.09 513.061C1888.03 511.178 1886.58 509.719 1884.69 508.707C1882.81 507.695 1880.88 507.177 1878.9 507.177ZM1872.71 526.781V511.578H1877.94C1879.73 511.578 1881.02 511.719 1881.82 512.002C1882.62 512.284 1883.26 512.778 1883.73 513.461C1884.2 514.167 1884.43 514.896 1884.43 515.696C1884.43 516.803 1884.03 517.767 1883.23 518.591C1882.43 519.415 1881.4 519.885 1880.08 519.98C1880.62 520.215 1881.04 520.474 1881.37 520.78C1881.99 521.368 1882.74 522.38 1883.61 523.792L1885.47 526.781H1882.48L1881.14 524.38C1880.08 522.498 1879.23 521.321 1878.57 520.85C1878.13 520.497 1877.47 520.333 1876.6 520.333H1875.16V526.805H1872.71V526.781ZM1875.16 518.238H1878.15C1879.56 518.238 1880.55 518.026 1881.07 517.603C1881.59 517.179 1881.84 516.614 1881.84 515.908C1881.84 515.461 1881.73 515.061 1881.47 514.708C1881.21 514.355 1880.88 514.096 1880.43 513.908C1879.99 513.743 1879.16 513.649 1877.96 513.649H1875.16V518.238Z" fill="black"/>
<defs>
<linearGradient id="paint0_linear_21_2" x1="1190.99" y1="864.181" x2="1848.58" y2="864.181" gradientUnits="userSpaceOnUse">
<stop stop-color="#414042"/>
<stop offset="0.0135" stop-color="#3E3D3F"/>
<stop offset="0.1808" stop-color="#262528"/>
<stop offset="0.3491" stop-color="#141417"/>
<stop offset="0.516" stop-color="#08080A"/>
<stop offset="0.681" stop-color="#020203"/>
<stop offset="0.8433"/>
<stop offset="1"/>
</linearGradient>
<linearGradient id="paint1_linear_21_2" x1="1205.33" y1="870.797" x2="1630.1" y2="680.957" gradientUnits="userSpaceOnUse">
<stop stop-color="#414042"/>
<stop offset="0.0135" stop-color="#3E3D3F"/>
<stop offset="0.1808" stop-color="#262528"/>
<stop offset="0.3491" stop-color="#141417"/>
<stop offset="0.516" stop-color="#08080A"/>
<stop offset="0.681" stop-color="#020203"/>
<stop offset="0.8433"/>
<stop offset="1"/>
</linearGradient>
<linearGradient id="paint2_linear_21_2" x1="1223.01" y1="910.374" x2="1647.79" y2="720.533" gradientUnits="userSpaceOnUse">
<stop stop-color="#414042"/>
<stop offset="0.0135" stop-color="#3E3D3F"/>
<stop offset="0.1808" stop-color="#262528"/>
<stop offset="0.3491" stop-color="#141417"/>
<stop offset="0.516" stop-color="#08080A"/>
<stop offset="0.681" stop-color="#020203"/>
<stop offset="0.8433"/>
<stop offset="1"/>
</linearGradient>
<linearGradient id="paint3_linear_21_2" x1="1134.47" y1="712.258" x2="1559.25" y2="522.416" gradientUnits="userSpaceOnUse">
<stop stop-color="#414042"/>
<stop offset="0.0135" stop-color="#3E3D3F"/>
<stop offset="0.1808" stop-color="#262528"/>
<stop offset="0.3491" stop-color="#141417"/>
<stop offset="0.516" stop-color="#08080A"/>
<stop offset="0.681" stop-color="#020203"/>
<stop offset="0.8433"/>
<stop offset="1"/>
</linearGradient>
<linearGradient id="paint4_linear_21_2" x1="1160.85" y1="771.295" x2="1585.63" y2="581.454" gradientUnits="userSpaceOnUse">
<stop stop-color="#414042"/>
<stop offset="0.0135" stop-color="#3E3D3F"/>
<stop offset="0.1808" stop-color="#262528"/>
<stop offset="0.3491" stop-color="#141417"/>
<stop offset="0.516" stop-color="#08080A"/>
<stop offset="0.681" stop-color="#020203"/>
<stop offset="0.8433"/>
<stop offset="1"/>
</linearGradient>
<linearGradient id="paint5_linear_21_2" x1="1878.48" y1="659.087" x2="1442.6" y2="659.087" gradientUnits="userSpaceOnUse">
<stop stop-color="#ED1C24"/>
<stop offset="1" stop-color="#BE1E2D"/>
</linearGradient>
</defs>
</svg>
